<svg id="Grupo_3" data-name="Grupo 3" xmlns="http://www.w3.org/2000/svg" width="102.201" height="31.19" viewBox="0 0 102.201 31.19">
  <g id="logo-clint">
    <g id="Grupo_2" data-name="Grupo 2" transform="translate(38.56 2.094)">
      <path id="Caminho_1" data-name="Caminho 1" d="M390.3,19.13v2.435a.628.628,0,0,0,.63.63h2.435a.628.628,0,0,0,.63-.63V19.13a.628.628,0,0,0-.63-.63H390.93A.639.639,0,0,0,390.3,19.13Z" transform="translate(-363.536 -18.5)" fill="#1b1744"/>
      <path id="Caminho_2" data-name="Caminho 2" d="M353.894,19.13v23.7a.628.628,0,0,1-.63.63H350.83a.628.628,0,0,1-.63-.63V19.13a.628.628,0,0,1,.63-.63h2.435A.651.651,0,0,1,353.894,19.13Z" transform="translate(-330.263 -18.5)" fill="#1b1744"/>
      <path id="Caminho_3" data-name="Caminho 3" d="M390.3,51.83V69.978a.628.628,0,0,0,.63.63h2.435a.628.628,0,0,0,.63-.63V51.83a.628.628,0,0,0-.63-.63H390.93A.628.628,0,0,0,390.3,51.83Z" transform="translate(-363.536 -45.633)" fill="#1b1744"/>
      <path id="Caminho_4" data-name="Caminho 4" d="M242.764,70.591a9.717,9.717,0,0,1-9.67-9.551,9.853,9.853,0,0,1,9.874-9.84h6.946a.628.628,0,0,1,.63.63v2.486a.628.628,0,0,1-.63.63h-7.082a5.951,5.951,0,1,0-.153,11.9H249.9a.628.628,0,0,1,.63.63v2.486a.628.628,0,0,1-.63.63Z" transform="translate(-233.093 -45.633)" fill="#1b1744"/>
      <path id="Caminho_5" data-name="Caminho 5" d="M430.6,60.864a9.717,9.717,0,0,1,9.551-9.67,9.853,9.853,0,0,1,9.84,9.874v8.887a.628.628,0,0,1-.63.63h-2.486a.628.628,0,0,1-.63-.63V60.95a5.951,5.951,0,1,0-11.9-.153v9.159a.628.628,0,0,1-.63.63H431.23a.628.628,0,0,1-.63-.63V60.864Z" transform="translate(-396.975 -45.627)" fill="#1b1744"/>
      <g id="Grupo_1" data-name="Grupo 1" transform="translate(55.179 0.017)">
        <path id="Caminho_6" data-name="Caminho 6" d="M557.83,18.6h2.435a.629.629,0,0,1,.63.63v4.937h3.115a.628.628,0,0,1,.63.63v1.737a.628.628,0,0,1-.63.63h-3.115v6.725c0,2.622,1.839,5.4,4.222,5.771a.637.637,0,0,1,.545.613v2.622a.636.636,0,0,1-.664.63c-4.733-.358-7.8-4.58-7.8-9.466V19.213A.625.625,0,0,1,557.83,18.6Z" transform="translate(-557.2 -18.6)" fill="#1b1744"/>
      </g>
    </g>
    <path id="Caminho_7" data-name="Caminho 7" d="M22.195,6.2A15.595,15.595,0,1,0,37.79,21.795,15.592,15.592,0,0,0,22.195,6.2Zm-5.107,9.023a8.067,8.067,0,0,1,10.2-3.371.854.854,0,0,1,.392,1.192L25.6,16.653a10.209,10.209,0,0,0-1.26-.085A9.183,9.183,0,0,0,16.287,21.3,8,8,0,0,1,17.087,15.223Zm1.941,14.948a8.059,8.059,0,0,1-8.019-7.15.854.854,0,0,1,.851-.936h4.171a9.24,9.24,0,0,0,8.547,5.754h.136A8.12,8.12,0,0,1,19.028,30.171ZM28.9,31.635a.831.831,0,0,1-1.226-.272L25.6,27.754a8.514,8.514,0,0,0,.7-1.039,9.225,9.225,0,0,0-.068-9.347A8.072,8.072,0,0,1,28.9,31.635Z" transform="translate(-6.6 -6.2)" fill="#1b1744"/>
  </g>
</svg>
